<svg xmlns="http://www.w3.org/2000/svg" version="1.1" xmlns:xlink="http://www.w3.org/1999/xlink" xmlns:svgjs="http://svgjs.dev/svgjs" width="1000" height="623" viewBox="0 0 1000 623"><g transform="matrix(1,0,0,1,-0.6060606060606233,0.2522267206477409)"><svg viewBox="0 0 396 247" data-background-color="#ffffff" preserveAspectRatio="xMidYMid meet" height="623" width="1000" xmlns="http://www.w3.org/2000/svg" xmlns:xlink="http://www.w3.org/1999/xlink"><g id="tight-bounds" transform="matrix(1,0,0,1,0.2400000000000091,-0.09999999999999432)"><svg viewBox="0 0 395.52 247.2" height="247.2" width="395.52"><g><svg></svg></g><g><svg viewBox="0 0 395.52 247.2" height="247.2" width="395.52"><g transform="matrix(1,0,0,1,105.69971060869565,47.215199999999996)"><svg viewBox="0 0 184.12057878260867 152.7696" height="152.7696" width="184.12057878260867"><g><svg viewBox="0 0 184.12057878260867 152.7696" height="152.7696" width="184.12057878260867"><g><svg viewBox="0 0 184.12057878260867 152.7696" height="152.7696" width="184.12057878260867"><g><svg viewBox="0 0 184.12057878260867 152.7696" height="152.7696" width="184.12057878260867"><g id="textblocktransform"><svg viewBox="0 0 184.12057878260867 152.7696" height="152.7696" width="184.12057878260867" id="textblock"><g><svg viewBox="0 0 184.12057878260867 152.7696" height="152.7696" width="184.12057878260867"><g transform="matrix(1,0,0,1,0,0)"><svg width="184.12057878260867" viewBox="4 -28.75 34.650001525878906 28.75" height="152.7696" data-palette-color="#636365"><path d="M4-3.4L4-25.3 9.85-28.75 20.2-28.75 20.2-22.85 10.5-22.85 10.5-5.65 20-5.65 20 0 9.85 0 4-3.4ZM32.15-19.45L38.65-19.45 38.65-25.3 32.8-28.75 22.45-28.75 22.45-22.85 32.15-22.85 32.15-19.45ZM38.65-3.4L38.65-17.2 22.45-17.2 22.45-11.5 32.15-11.5 32.15-5.65 22.65-5.65 22.65 0 32.8 0 38.65-3.4Z" opacity="1" transform="matrix(1,0,0,1,0,0)" fill="#636365" class="wordmark-text-0" data-fill-palette-color="primary" id="text-0"></path></svg></g></svg></g></svg></g></svg></g></svg></g></svg></g></svg></g><path d="M288.001 41.215L288.001 0 40.801 0 40.801 247.2 288.001 247.2 288.001 205.985 274.224 205.985 274.224 233.423 54.578 233.423 54.578 13.777 274.224 13.777 274.224 41.215Z" fill="#636365" stroke="transparent" data-fill-palette-color="primary"></path></svg></g><defs></defs></svg><rect width="395.52" height="247.2" fill="none" stroke="none" visibility="hidden"></rect></g></svg></g></svg>